<?xml version="1.0" encoding="utf-8" ?>
<!DOCTYPE svg PUBLIC "-//W3C//DTD SVG 1.1//EN" "http://www.w3.org/Graphics/SVG/1.1/DTD/svg11.dtd">
<svg xmlns="http://www.w3.org/2000/svg" id="Layer_1" data-name="Layer 1" viewBox="0 0 200 45"><defs><style>.cls-1,.cls-2{fill:#006891;}.cls-2{fill-rule:evenodd;}</style></defs><polyline class="cls-1" points="18.52 37.13 18.52 11.87 26.21 11.87 26.21 21.22 43.71 21.22 43.71 11.87 51.4 11.87 51.4 37.13 43.71 37.13 43.71 27.47 26.21 27.47 26.21 37.13 18.52 37.13"/><path class="cls-2" d="M69.49,27.36H80.35l-5.5-10.07L69.49,27.36M55.6,37.13,69.81,11.87h10.3L93.92,37.13H85.53L83,32.63H66.72l-2.43,4.5Z"/><polyline class="cls-1" points="97.41 37.13 97.41 11.87 109.62 11.87 118.84 28.64 128.02 11.87 140.14 11.87 140.14 37.13 132.62 37.13 133 17.62 121.8 37.13 115.66 37.13 104.63 17.62 104.83 37.13 97.41 37.13"/><polyline class="cls-1" points="147.34 37.13 147.34 11.87 155.03 11.87 155.03 21.3 159.07 21.3 169.5 11.87 180.06 11.87 165.56 24.35 181.48 37.13 170.31 37.13 158.9 27.44 155.03 27.44 155.03 37.13 147.34 37.13"/></svg>